<?xml version="1.0" encoding="UTF-8"?>
<svg width="30px" height="18px" viewBox="0 0 30 18" version="1.1" xmlns="http://www.w3.org/2000/svg" xmlns:xlink="http://www.w3.org/1999/xlink">
    <!-- Generator: Sketch 64 (93537) - https://sketch.com -->
    <title>VIP</title>
    <desc>Created with Sketch.</desc>
    <defs>
        <linearGradient x1="0%" y1="50%" x2="100%" y2="50%" id="linearGradient-1">
            <stop stop-color="#F2CF9D" offset="0%"></stop>
            <stop stop-color="#E6B673" offset="100%"></stop>
            <stop stop-color="#CC9C5A" offset="100%"></stop>
        </linearGradient>
        <rect id="path-2" x="0" y="0" width="30" height="18" rx="3"></rect>
    </defs>
    <g id="页面-1" stroke="none" stroke-width="1" fill="none" fill-rule="evenodd">
        <g id="PCA焦点图快速预览" transform="translate(-3022.000000, -564.000000)">
            <g id="编组-21备份" transform="translate(2871.000000, 530.000000)">
                <g id="VIP角标" transform="translate(151.000000, 34.000000)">
                    <g id="编组-15">
                        <g id="VIP">
                            <mask id="mask-3" fill="white">
                                <use xlink:href="#path-2"></use>
                            </mask>
                            <use id="蒙版" fill="url(#linearGradient-1)" xlink:href="#path-2"></use>
                            <path d="M9.3046875,14 L13.2285156,3.97851562 L11.875,3.97851562 L9.16796875,11.2587891 C8.96289062,11.8056641 8.7828776,12.3525391 8.62792969,12.8994141 C8.48665365,12.3889974 8.31119792,11.8421224 8.1015625,11.2587891 L8.1015625,11.2587891 L5.49707031,3.97851562 L4.06152344,3.97851562 L7.94433594,14 L9.3046875,14 Z M15.9697266,14 L15.9697266,3.97851562 L14.6435547,3.97851562 L14.6435547,14 L15.9697266,14 Z M19.6337891,14 L19.6337891,9.92578125 L22.2041016,9.92578125 C23.6214193,9.92578125 24.601237,9.63069661 25.1435547,9.04052734 C25.6858724,8.45035807 25.9570312,7.72916667 25.9570312,6.87695312 C25.9570312,6.38020833 25.8556315,5.92447917 25.652832,5.50976562 C25.4500326,5.09505208 25.1822917,4.7726237 24.8496094,4.54248047 C24.5169271,4.31233724 24.1044922,4.15625 23.6123047,4.07421875 C23.2613932,4.01041667 22.7532552,3.97851562 22.0878906,3.97851562 L22.0878906,3.97851562 L18.3076172,3.97851562 L18.3076172,14 L19.6337891,14 Z M22.2246094,8.74316406 L19.6337891,8.74316406 L19.6337891,5.16113281 L22.1972656,5.16113281 C22.7988281,5.16113281 23.211263,5.19075521 23.4345703,5.25 C23.7809245,5.34570312 24.0600586,5.54280599 24.2719727,5.84130859 C24.4838867,6.1398112 24.5898438,6.49869792 24.5898438,6.91796875 C24.5898438,7.49674479 24.4098307,7.94563802 24.0498047,8.26464844 C23.6897786,8.58365885 23.0813802,8.74316406 22.2246094,8.74316406 L22.2246094,8.74316406 Z" fill="#663C00" fill-rule="nonzero" mask="url(#mask-3)"></path>
                        </g>
                    </g>
                </g>
            </g>
        </g>
    </g>
</svg>