<?xml version="1.0" encoding="UTF-8"?>
<svg width="34px" height="20px" viewBox="0 0 34 20" version="1.1" xmlns="http://www.w3.org/2000/svg" xmlns:xlink="http://www.w3.org/1999/xlink">
    <!-- Generator: Sketch 61 (89581) - https://sketch.com -->
    <title>广告</title>
    <desc>Created with Sketch.</desc>
    <defs>
        <path d="M5.04101562,16.6186523 C6.42903646,15.0444336 7.1188151,12.9285482 7.11035156,10.2709961 L7.11035156,10.2709961 L7.11035156,7.12255859 L16.6191406,7.12255859 L16.6191406,6.09423828 L11.4140625,6.09423828 L12.125,5.67529297 C11.8033854,5.16748047 11.4352214,4.64697266 11.0205078,4.11376953 L11.0205078,4.11376953 L10.09375,4.64697266 C10.4873047,5.20556641 10.8025716,5.68798828 11.0395508,6.09423828 L11.0395508,6.09423828 L5.98046875,6.09423828 L5.98046875,10.144043 C5.98046875,12.581543 5.36263021,14.4731445 4.12695312,15.8188477 C4.54166667,16.1404622 4.84635417,16.4070638 5.04101562,16.6186523 Z M29.7587891,10.1313477 L29.7587891,9.19189453 L24.4140625,9.19189453 L24.4140625,7.09716797 L28.8066406,7.09716797 L28.8066406,6.15771484 L24.4140625,6.15771484 L24.4140625,4.16455078 L23.3730469,4.16455078 L23.3730469,6.15771484 L20.4023438,6.15771484 C20.6097005,5.69222005 20.8085938,5.20556641 20.9990234,4.69775391 L20.9990234,4.69775391 L19.9453125,4.39306641 C19.4967448,5.81494141 18.8069661,7.13525391 17.8759766,8.35400391 C18.2229818,8.55712891 18.5361328,8.75602214 18.8154297,8.95068359 C19.2174479,8.38785807 19.5940755,7.77001953 19.9453125,7.09716797 L19.9453125,7.09716797 L23.3730469,7.09716797 L23.3730469,9.19189453 L17.3554688,9.19189453 L17.3554688,10.1313477 L29.7587891,10.1313477 Z M20.0722656,16.5805664 L20.0722656,15.9204102 L27.0673828,15.9204102 L27.0673828,16.5805664 L28.0830078,16.5805664 L28.0830078,11.4897461 L19.0566406,11.4897461 L19.0566406,16.5805664 L20.0722656,16.5805664 Z M27.0673828,15.019043 L20.0722656,15.019043 L20.0722656,12.4038086 L27.0673828,12.4038086 L27.0673828,15.019043 Z" id="path-1"></path>
        <filter x="-23.4%" y="-48.0%" width="146.8%" height="196.0%" filterUnits="objectBoundingBox" id="filter-2">
            <feOffset dx="0" dy="0" in="SourceAlpha" result="shadowOffsetOuter1"></feOffset>
            <feGaussianBlur stdDeviation="2" in="shadowOffsetOuter1" result="shadowBlurOuter1"></feGaussianBlur>
            <feColorMatrix values="0 0 0 0 0   0 0 0 0 0   0 0 0 0 0  0 0 0 0.5 0" type="matrix" in="shadowBlurOuter1"></feColorMatrix>
        </filter>
    </defs>
    <g id="页面-1" stroke="none" stroke-width="1" fill="none" fill-rule="evenodd">
        <g id="PCW首页焦点图细化" transform="translate(-1633.000000, -3311.000000)">
            <g id="编组-16" transform="translate(1614.000000, 3233.000000)">
                <g id="广告角标备份" transform="translate(19.000000, 78.000000)">
                    <g id="广告">
                        <rect id="矩形" fill-opacity="0.2" fill="#D8D8D8" x="0" y="0" width="34" height="20" rx="2"></rect>
                        <g fill-rule="nonzero">
                            <use fill="black" fill-opacity="1" filter="url(#filter-2)" xlink:href="#path-1"></use>
                            <use fill="#FFFFFF" xlink:href="#path-1"></use>
                        </g>
                    </g>
                </g>
            </g>
        </g>
    </g>
</svg>